<svg id="Capa_1" data-name="Capa 1" xmlns="http://www.w3.org/2000/svg" viewBox="0 0 1080 1080">
<defs>
    <linearGradient id="locolore" x1="0%" y1="0%" x2="100%" y2="100%">
    <stop offset="0%" style="stop-color:hsla(141, 81%, 87%, 1);" />
    <stop offset="46%" style="stop-color:hsla(41, 88%, 75%, 1);" />
    <stop offset="100%" style="stop-color:hsla(358, 82%, 71%, 1);" />
    </linearGradient>
</defs>
<path class="mano-bordes" d="M960.81,536.21a90.2,90.2,0,0,0-50.4-25.5l76.4-76.4a90.59,90.59,0,0,0,0-128.1l-4-4a90.17,90.17,0,0,0-38.91-23l14.91-14.91a90.59,90.59,0,0,0,0-128.1l-4-4a90.59,90.59,0,0,0-128.1,0l-40.16,40.16a90.25,90.25,0,0,0-22.79-38.21l-4-4a90.58,90.58,0,0,0-128.09,0L349.15,412.68V401.87a118,118,0,0,0-118-118h-4a118,118,0,0,0-118,118v450a118.4,118.4,0,0,0,1,15.39v84.61a46,46,0,0,0,46,46H599.87a90.39,90.39,0,0,0,61.88-26.5L964.81,668.31a90.59,90.59,0,0,0,0-128.1Zm-30.67,96.67-297,297.49c-5.34,4.78-9.32,8.74-12,11.5-2.92,3-5.15,5.49-9.13,7a18.87,18.87,0,0,1-7.44,1.14H181.72a24.57,24.57,0,0,1-24.57-24.56v-43a24.45,24.45,0,0,1,.7-5.84,75,75,0,0,1-.7-10.23v-459a74.5,74.5,0,1,1,149,0v59c.36.06-.9,9.2,5,16a19.89,19.89,0,0,0,7,5c10.68,4.61,23.18-.87,26-2l.82-.32L665.14,164.88a43.13,43.13,0,0,1,61,61l-279.8,279.8c12.78,6.36,28.4,15.56,51.05,28.95L863.14,168.88a43.13,43.13,0,0,1,61,61l-352,352c11.78,8.34,27.22,19.77,42.92,33.08L893.14,336.88a43.13,43.13,0,0,1,61,61L673.29,678.73a256.2,256.2,0,0,1,15.86,31.14,219.52,219.52,0,0,1,10.31,31.69L869.14,571.88a43.13,43.13,0,0,1,61,61Z"/>
<path class="mano-relleno" d="M960.81,536.21a90.2,90.2,0,0,0-50.4-25.5l76.4-76.4a90.59,90.59,0,0,0,0-128.1l-4-4a90.17,90.17,0,0,0-38.91-23l14.91-14.91a90.59,90.59,0,0,0,0-128.1l-4-4a90.59,90.59,0,0,0-128.1,0l-40.16,40.16a90.25,90.25,0,0,0-22.79-38.21l-4-4a90.58,90.58,0,0,0-128.09,0L349.15,412.68V401.87a118,118,0,0,0-118-118h-4a118,118,0,0,0-118,118v450a118.4,118.4,0,0,0,1,15.39v84.61a46,46,0,0,0,46,46H599.87a90.39,90.39,0,0,0,61.88-26.5L964.81,668.31a90.59,90.59,0,0,0,0-128.1Zm-30.67,96.67-297,297.49c-5.34,4.78-9.32,8.74-12,11.5-2.92,3-5.15,5.49-9.13,7a18.87,18.87,0,0,1-7.44,1.14H181.72a24.57,24.57,0,0,1-24.57-24.56v-43a24.45,24.45,0,0,1,.7-5.84,75,75,0,0,1-.7-10.23v-459a74.5,74.5,0,1,1,149,0v59c.36.06-.9,9.2,5,16a19.89,19.89,0,0,0,7,5c10.68,4.61,23.18-.87,26-2l.82-.32L665.14,164.88a43.13,43.13,0,0,1,61,61l-279.8,279.8c12.78,6.36,28.4,15.56,51.05,28.95L863.14,168.88a43.13,43.13,0,0,1,61,61l-352,352c11.78,8.34,27.22,19.77,42.92,33.08L893.14,336.88a43.13,43.13,0,0,1,61,61L673.29,678.73a256.2,256.2,0,0,1,15.86,31.14,219.52,219.52,0,0,1,10.31,31.69L869.14,571.88a43.13,43.13,0,0,1,61,61Z"/>
</svg>